<svg width="87" height="34" viewBox="0 0 87 34" fill="none" xmlns="http://www.w3.org/2000/svg">
<path d="M14.9439 10.1391C17.5771 10.1391 19.6674 11.0213 21.2147 12.7858C22.762 14.5232 23.5357 16.8849 23.5357 19.871V33.1861H15.5547V20.9297C15.5547 19.6266 15.2154 18.6087 14.5367 17.8757C13.8581 17.1156 12.9487 16.7356 11.8086 16.7356C10.6141 16.7356 9.67759 17.1156 8.99894 17.8757C8.32028 18.6087 7.98096 19.6266 7.98096 20.9297V33.1861H0V10.3427H7.98096V13.6002C8.68676 12.5687 9.63687 11.7407 10.8313 11.1163C12.0257 10.4648 13.3966 10.1391 14.9439 10.1391Z" fill="black"/>
<path d="M31.9461 8.22527C30.5345 8.22527 29.3944 7.84523 28.5257 7.08514C27.6842 6.2979 27.2634 5.32064 27.2634 4.15336C27.2634 2.95893 27.6842 1.9681 28.5257 1.18086C29.3944 0.39362 30.5345 0 31.9461 0C33.3305 0 34.4435 0.39362 35.2851 1.18086C36.1537 1.9681 36.5881 2.95893 36.5881 4.15336C36.5881 5.32064 36.1537 6.2979 35.2851 7.08514C34.4435 7.84523 33.3305 8.22527 31.9461 8.22527ZM35.8959 10.3427V33.1861H27.9149V10.3427H35.8959Z" fill="black"/>
<path d="M39.1378 21.744C39.1378 19.3823 39.6264 17.3192 40.6037 15.5547C41.581 13.7902 42.9383 12.4329 44.6756 11.4828C46.4401 10.5327 48.4489 10.0576 50.702 10.0576C53.6067 10.0576 56.0498 10.8584 58.0315 12.4601C60.0132 14.0345 61.289 16.247 61.8591 19.0973H53.3895C52.9009 17.6043 51.9508 16.8577 50.5392 16.8577C49.5348 16.8577 48.734 17.2785 48.1367 18.12C47.5667 18.9344 47.2816 20.1424 47.2816 21.744C47.2816 23.3457 47.5667 24.5672 48.1367 25.4088C48.734 26.2503 49.5348 26.6711 50.5392 26.6711C51.9779 26.6711 52.928 25.9245 53.3895 24.4315H61.8591C61.289 27.2547 60.0132 29.4671 58.0315 31.0687C56.0498 32.6704 53.6067 33.4712 50.702 33.4712C48.4489 33.4712 46.4401 32.9961 44.6756 32.046C42.9383 31.0959 41.581 29.7386 40.6037 27.9741C39.6264 26.2096 39.1378 24.1329 39.1378 21.744Z" fill="black"/>
<path d="M87 21.4997C87 22.1241 86.9593 22.7484 86.8779 23.3728H71.771C71.8525 24.6215 72.1918 25.5581 72.789 26.1824C73.4134 26.7796 74.2006 27.0783 75.1507 27.0783C76.4809 27.0783 77.431 26.481 78.0011 25.2866H86.5114C86.1585 26.8611 85.4663 28.2727 84.4347 29.5214C83.4303 30.743 82.1544 31.7067 80.6071 32.4125C79.0598 33.1183 77.3496 33.4712 75.4765 33.4712C73.2234 33.4712 71.2145 32.9961 69.45 32.046C67.7127 31.0959 66.3418 29.7386 65.3374 27.9741C64.3601 26.2096 63.8715 24.1329 63.8715 21.744C63.8715 19.3552 64.3601 17.2921 65.3374 15.5547C66.3147 13.7902 67.672 12.4329 69.4093 11.4828C71.1738 10.5327 73.1962 10.0576 75.4765 10.0576C77.7296 10.0576 79.7249 10.5191 81.4622 11.4421C83.1996 12.3651 84.5569 13.6952 85.5341 15.4326C86.5114 17.1428 87 19.1652 87 21.4997ZM78.8562 19.5045C78.8562 18.5272 78.5304 17.7671 77.8789 17.2242C77.2274 16.6541 76.413 16.3691 75.4358 16.3691C74.4585 16.3691 73.6577 16.6406 73.0333 17.1835C72.409 17.6993 72.0018 18.4729 71.8118 19.5045H78.8562Z" fill="black"/>
</svg>
